<svg width="45" height="45" viewBox="0 0 45 45" fill="none" xmlns="http://www.w3.org/2000/svg">
<rect width="45" height="45" rx="12.0581" fill="url(#paint0_linear_598_29161)"/>
<path d="M12.5 22.0994C12.5 17.0095 16.6262 12.8833 21.7161 12.8833C22.305 12.8833 22.8823 12.9387 23.4426 13.045L23.166 14.503C23.0395 15.1694 22.3944 15.5954 21.7161 15.5954C18.1241 15.5954 15.2121 18.5073 15.2121 22.0994C15.2121 25.6915 18.1241 28.6034 21.7161 28.6034C23.5125 28.6034 25.1366 27.8769 26.3151 26.6984C27.4935 25.5199 28.2201 23.8958 28.2201 22.0994C28.2201 21.2991 28.0761 20.5355 27.8139 19.8311C29.2177 19.3086 30.8232 20.0338 30.9148 21.5289C30.9263 21.7177 30.9322 21.9079 30.9322 22.0994C30.9322 24.1546 30.2581 26.0539 29.1209 27.5865L30.5823 29.0479C31.6414 30.107 31.6414 31.8242 30.5822 32.8833L27.2032 29.5042C25.6706 30.6414 23.7713 31.3155 21.7161 31.3155C16.6262 31.3155 12.5 27.1893 12.5 22.0994Z" fill="white"/>
<path fill-rule="evenodd" clip-rule="evenodd" d="M31.8848 14.7138C32.025 14.6619 32.1707 14.6212 32.3208 14.5925C32.3318 14.5904 32.3429 14.5883 32.354 14.5864C32.4543 14.5685 32.4543 14.4246 32.354 14.4067C32.3429 14.4047 32.3318 14.4027 32.3208 14.4006C32.1707 14.3719 32.025 14.3311 31.8848 14.2793C31.8009 14.2482 31.7189 14.2133 31.6392 14.1746C31.0869 13.9065 30.6397 13.4592 30.3716 12.907C30.3329 12.8272 30.2979 12.7453 30.2669 12.6614C30.2151 12.5212 30.1743 12.3755 30.1456 12.2253C30.1435 12.2143 30.1415 12.2032 30.1395 12.1922C30.1216 12.0919 29.9777 12.0919 29.9598 12.1922C29.9578 12.2032 29.9558 12.2143 29.9537 12.2253C29.925 12.3755 29.8842 12.5212 29.8324 12.6614C29.8014 12.7453 29.7664 12.8272 29.7277 12.907C29.4596 13.4592 29.0124 13.9065 28.4601 14.1746C28.3803 14.2133 28.2984 14.2482 28.2145 14.2793C28.0743 14.3311 27.9286 14.3719 27.7784 14.4006C27.7674 14.4027 27.7564 14.4047 27.7453 14.4067C27.645 14.4246 27.645 14.5685 27.7453 14.5864C27.7564 14.5883 27.7674 14.5904 27.7784 14.5925C27.9286 14.6212 28.0743 14.6619 28.2145 14.7138C28.2984 14.7448 28.3803 14.7798 28.4601 14.8185C29.0124 15.0865 29.4596 15.5338 29.7277 16.0861C29.7664 16.1658 29.8014 16.2478 29.8324 16.3317C29.8842 16.4719 29.925 16.6176 29.9537 16.7677C29.9558 16.7787 29.9578 16.7898 29.9598 16.8008C29.9777 16.9012 30.1216 16.9012 30.1395 16.8008C30.1415 16.7898 30.1435 16.7787 30.1456 16.7677C30.1743 16.6176 30.2151 16.4719 30.2669 16.3317C30.2979 16.2478 30.3329 16.1658 30.3716 16.0861C30.6397 15.5338 31.0869 15.0865 31.6392 14.8185C31.7189 14.7798 31.8009 14.7448 31.8848 14.7138ZM28.5328 18.2783C28.6309 18.2519 28.7303 18.2287 28.831 18.2088C28.8467 18.2058 28.8625 18.2027 28.8783 18.1998L28.8831 18.1989L28.8895 18.1977C28.8995 18.1959 28.9104 18.194 28.9323 18.19L28.9399 18.1887C29.1004 18.1583 29.1004 17.9286 28.9399 17.8982L28.9323 17.8969C28.9104 17.893 28.8995 17.891 28.8895 17.8892L28.8831 17.888L28.8783 17.8871C28.8625 17.8842 28.8467 17.8812 28.831 17.8781C28.7303 17.8583 28.6309 17.8351 28.5328 17.8086C28.4491 17.7861 28.3663 17.7611 28.2846 17.7339C26.9629 17.2933 25.9228 16.2532 25.4822 14.9314C25.4549 14.8497 25.43 14.767 25.4074 14.6832C25.381 14.5852 25.3578 14.4857 25.338 14.3851C25.3349 14.3693 25.3319 14.3536 25.3289 14.3378L25.328 14.333L25.3269 14.3265C25.3251 14.3167 25.3231 14.3059 25.3193 14.2845L25.3178 14.2761C25.2875 14.1157 25.0577 14.1157 25.0274 14.2761L25.026 14.2838C25.0221 14.3056 25.0202 14.3166 25.0183 14.3265L25.0172 14.333L25.0163 14.3378C25.0133 14.3536 25.0103 14.3693 25.0072 14.3851C24.9874 14.4857 24.9642 14.5852 24.9378 14.6832C24.9152 14.767 24.8903 14.8497 24.863 14.9314C24.4224 16.2532 23.3823 17.2933 22.0606 17.7339C21.9789 17.7611 21.8961 17.7861 21.8124 17.8086C21.7143 17.8351 21.6149 17.8583 21.5142 17.8781C21.4985 17.8812 21.4827 17.8842 21.4669 17.8871L21.4622 17.888L21.4557 17.8892C21.4457 17.891 21.4348 17.893 21.4129 17.8969L21.4053 17.8982C21.2448 17.9286 21.2448 18.1583 21.4053 18.1887L21.4129 18.19L21.4361 18.1942L21.4557 18.1977L21.4622 18.1989L21.4669 18.1998C21.4827 18.2027 21.4985 18.2058 21.5142 18.2088C21.6149 18.2287 21.7143 18.2519 21.8124 18.2783C21.8961 18.3009 21.9789 18.3258 22.0606 18.353C23.3823 18.7936 24.4224 19.8337 24.863 21.1555C24.8903 21.2372 24.9152 21.32 24.9378 21.4037C24.9642 21.5018 24.9874 21.6012 25.0072 21.7019C25.0103 21.7176 25.0133 21.7334 25.0163 21.7491L25.0172 21.7539L25.0183 21.7604L25.021 21.775L25.0259 21.8023L25.0274 21.8108C25.0577 21.9712 25.2875 21.9712 25.3178 21.8108L25.3192 21.8032C25.3231 21.7813 25.325 21.7703 25.3269 21.7604L25.328 21.7539L25.3289 21.7491C25.3319 21.7334 25.3349 21.7176 25.338 21.7019C25.3578 21.6012 25.381 21.5018 25.4074 21.4037C25.43 21.32 25.4549 21.2372 25.4822 21.1555C25.9228 19.8337 26.9629 18.7936 28.2846 18.353C28.3663 18.3258 28.4491 18.3009 28.5328 18.2783Z" fill="white"/>
<defs>
<linearGradient id="paint0_linear_598_29161" x1="37.5" y1="7" x2="10" y2="48.5" gradientUnits="userSpaceOnUse">
<stop stop-color="#1570EF"/>
<stop offset="1" stop-color="#2E90FA"/>
</linearGradient>
</defs>
</svg>
