<svg width="46" height="45" viewBox="0 0 46 45" fill="none" xmlns="http://www.w3.org/2000/svg">
<path d="M32.0332 0H14.7255C7.07853 0 0.879395 6.4163 0.879395 14.3312V30.6688C0.879395 38.5837 7.07853 45 14.7255 45H32.0332C39.6803 45 45.8794 38.5837 45.8794 30.6688V14.3312C45.8794 6.4163 39.6803 0 32.0332 0Z" fill="url(#paint0_linear_6662_15593)"/>
<path d="M31.8111 26.3368H36.2507C32.9138 34.4036 22.2935 35.9415 16.3741 30.3412L10.1354 32.2273C9.87426 32.2853 9.64213 31.9952 9.81623 31.763L13.6465 26.3949C10.0194 18.1831 16.7803 9.12977 25.8916 9.71011C30.2442 10.0003 34.9449 13.0761 36.2507 17.2545H32.1303C29.2866 12.8149 22.9899 11.7413 19.1017 15.6006C11.6443 23.0289 22.1775 36.4638 31.579 26.8882C31.7821 26.7141 31.7821 26.3368 31.8111 26.3368Z" fill="white"/>
<defs>
<linearGradient id="paint0_linear_6662_15593" x1="-0.0552207" y1="47.078" x2="46.1564" y2="1.84214" gradientUnits="userSpaceOnUse">
<stop stop-color="#03A0FF"/>
<stop offset="1" stop-color="#016AFB"/>
</linearGradient>
</defs>
</svg>
