<svg width="45" height="45" viewBox="0 0 45 45" fill="none" xmlns="http://www.w3.org/2000/svg">
<rect width="45" height="45" rx="12.0581" fill="#F4F8F9"/>
<path d="M34.0444 37.0004H11.0568C10.7778 37.0004 10.5506 36.7713 10.5506 36.4863V8.51438C10.5506 8.2294 10.7761 8.00037 11.0568 8.00037H28.037C28.1748 8.00037 28.3056 8.05806 28.4021 8.15772L34.4094 14.5112C34.5006 14.6074 34.5506 14.735 34.5506 14.8662V36.4863C34.5506 36.7696 34.325 37.0004 34.0444 37.0004ZM11.5613 35.9741H33.5382V15.0742L27.8218 9.02665H11.5613V35.9741Z" fill="#2B4E56" stroke="#2B4E56" stroke-width="0.737615"/>
<path d="M34.0445 15.3817H28.0354C27.7565 15.3817 27.5292 15.1527 27.5292 14.8677V8.51414C27.5292 8.23091 27.7548 8.00012 28.0354 8.00012C28.3161 8.00012 28.5416 8.22916 28.5416 8.51414V14.3554H34.0445C34.3234 14.3554 34.5507 14.5844 34.5507 14.8694C34.5507 15.1544 34.3251 15.3834 34.0445 15.3834V15.3817Z" fill="#2B4E56" stroke="#2B4E56" stroke-width="0.737615"/>
<path d="M22.8975 19.5987H15.1253C14.8464 19.5987 14.6191 19.3697 14.6191 19.0847V13.9778C14.6191 13.6945 14.8447 13.4637 15.1253 13.4637H22.8975C23.1764 13.4637 23.4037 13.6928 23.4037 13.9778V19.0847C23.4037 19.3679 23.1781 19.5987 22.8975 19.5987ZM15.6316 18.5724H22.3913V14.4935H15.6316V18.5724Z" fill="#2B4E56" stroke="#2B4E56" stroke-width="0.737615"/>
<path d="M22.8975 24.0117H15.1253C14.8464 24.0117 14.6191 23.7826 14.6191 23.4977C14.6191 23.2127 14.8447 22.9836 15.1253 22.9836H22.8975C23.1764 22.9836 23.4037 23.2127 23.4037 23.4977C23.4037 23.7826 23.1781 24.0117 22.8975 24.0117Z" fill="#2B4E56" stroke="#2B4E56" stroke-width="0.737615"/>
<path d="M29.411 28.1236H15.1253C14.8464 28.1236 14.6191 27.8946 14.6191 27.6096C14.6191 27.3246 14.8447 27.0956 15.1253 27.0956H29.4093C29.6882 27.0956 29.9155 27.3246 29.9155 27.6096C29.9155 27.8946 29.6899 28.1236 29.4093 28.1236H29.411Z" fill="#2B4E56" stroke="#2B4E56" stroke-width="0.737615"/>
<path d="M29.411 32.2359H15.1253C14.8464 32.2359 14.6191 32.0069 14.6191 31.7219C14.6191 31.4369 14.8447 31.2079 15.1253 31.2079H29.4093C29.6882 31.2079 29.9155 31.4369 29.9155 31.7219C29.9155 32.0069 29.6899 32.2359 29.4093 32.2359H29.411Z" fill="#2B4E56" stroke="#2B4E56" stroke-width="0.737615"/>
</svg>
