<svg width="45" height="45" viewBox="0 0 45 45" fill="none" xmlns="http://www.w3.org/2000/svg">
<rect width="45" height="45" rx="12.0581" fill="#F4F8F9"/>
<path d="M24.5735 33.3192H19.5246C18.2857 33.3192 17.2767 32.332 17.2767 31.1201V30.2282C17.2767 29.2824 16.8797 28.378 16.161 27.6803C14.4866 26.0602 13.5823 23.8072 13.6834 21.5003C13.8672 17.2729 17.398 13.835 21.7209 13.6731C24.0203 13.5868 26.2001 14.3978 27.8561 15.9567C29.5122 17.5157 30.4238 19.6123 30.4238 21.8599C30.4238 24.1075 29.5544 26.1016 27.9738 27.648C27.2312 28.3744 26.8232 29.3148 26.8232 30.2948V31.1201C26.8232 32.332 25.8141 33.3192 24.5753 33.3192H24.5735ZM22.0518 14.5668C21.9525 14.5668 21.8551 14.5686 21.7559 14.5722C17.909 14.716 14.766 17.7764 14.6006 21.5398C14.5105 23.5933 15.3156 25.5999 16.8062 27.042C17.7013 27.9087 18.1957 29.0397 18.1957 30.2282V31.1201C18.1957 31.8375 18.7912 32.4201 19.5246 32.4201H24.5735C25.3069 32.4201 25.9024 31.8375 25.9024 31.1201V30.2948C25.9024 29.0757 26.406 27.9087 27.3213 27.0132C28.7273 25.6359 29.503 23.8072 29.503 21.8617C29.503 19.9161 28.6906 17.994 27.2165 16.6058C25.8141 15.286 23.989 14.5686 22.0499 14.5686L22.0518 14.5668Z" fill="#2B4E56" stroke="#2B4E56" stroke-width="0.75"/>
<path d="M23.688 36.5H20.4145C19.5249 36.5 18.8008 35.7915 18.8008 34.9213V32.8696C18.8008 32.6215 19.0066 32.4201 19.2603 32.4201H24.8422C25.0959 32.4201 25.3017 32.6215 25.3017 32.8696V34.9213C25.3017 35.7915 24.5776 36.5 23.688 36.5ZM19.7198 33.3192V34.9213C19.7198 35.2953 20.0304 35.6009 20.4145 35.6009H23.688C24.0703 35.6009 24.3827 35.2971 24.3827 34.9213V33.3192H19.7198Z" fill="#2B4E56" stroke="#2B4E56" stroke-width="0.75"/>
<path d="M21.5404 23.9025C21.4393 23.9025 21.3382 23.8701 21.2536 23.8054L19.5719 22.4964C19.3734 22.3418 19.3403 22.0595 19.4984 21.8653C19.6564 21.6711 19.945 21.6387 20.1435 21.7933L21.5018 22.8506L23.9095 20.4609C24.0878 20.2847 24.3782 20.2829 24.5602 20.4556C24.7403 20.63 24.744 20.9141 24.5657 21.0921L21.8675 23.7694C21.7775 23.8576 21.6598 23.9043 21.5404 23.9043V23.9025Z" fill="#2B4E56" stroke="#2B4E56" stroke-width="0.75"/>
<path d="M22.0493 11.5676C21.7957 11.5676 21.5898 11.3662 21.5898 11.118V8.94952C21.5898 8.70139 21.7957 8.5 22.0493 8.5C22.303 8.5 22.5088 8.70139 22.5088 8.94952V11.118C22.5088 11.3662 22.303 11.5676 22.0493 11.5676Z" fill="#2B4E56" stroke="#2B4E56" stroke-width="0.75"/>
<path d="M17.6732 12.5403C17.4949 12.5403 17.3258 12.4396 17.2504 12.2688L16.3719 10.2783C16.2708 10.05 16.3792 9.78565 16.6108 9.68676C16.8442 9.58786 17.1144 9.69395 17.2155 9.92051L18.0941 11.911C18.1952 12.1394 18.0867 12.4037 17.8551 12.5026C17.7963 12.5278 17.7338 12.5403 17.6732 12.5403Z" fill="#2B4E56" stroke="#2B4E56" stroke-width="0.75"/>
<path d="M14.0506 15.1314C13.9367 15.1314 13.8245 15.09 13.7363 15.0091L12.1226 13.5221C11.9388 13.3513 11.9296 13.0672 12.1023 12.8874C12.277 12.7058 12.5674 12.6986 12.7512 12.8676L14.3649 14.3546C14.5487 14.5254 14.5579 14.8095 14.3851 14.9893C14.2951 15.0828 14.1719 15.1314 14.0506 15.1314Z" fill="#2B4E56" stroke="#2B4E56" stroke-width="0.75"/>
<path d="M11.7762 18.9146C11.7248 18.9146 11.6715 18.9056 11.62 18.8876L9.53571 18.1486C9.29678 18.0641 9.17363 17.807 9.26002 17.5732C9.3464 17.3394 9.61107 17.219 9.84817 17.3035L11.9324 18.0425C12.1714 18.127 12.2945 18.3841 12.2081 18.6179C12.1401 18.8013 11.9637 18.9146 11.7762 18.9146Z" fill="#2B4E56" stroke="#2B4E56" stroke-width="0.75"/>
<path d="M9.00923 23.4026C8.76845 23.4026 8.56627 23.2192 8.55157 22.9801C8.53686 22.732 8.72985 22.5198 8.98166 22.5036L11.1946 22.3741C11.4482 22.3615 11.6651 22.5486 11.6817 22.7967C11.6964 23.0448 11.5034 23.257 11.2516 23.2732L9.03863 23.4026C9.02944 23.4026 9.02025 23.4026 9.01106 23.4026H9.00923Z" fill="#2B4E56" stroke="#2B4E56" stroke-width="0.75"/>
<path d="M26.4239 12.5403C26.3632 12.5403 26.3008 12.5277 26.2419 12.5026C26.0085 12.4037 25.9019 12.1394 26.003 11.911L26.8816 9.9205C26.9826 9.69214 27.2528 9.58785 27.4863 9.68675C27.7197 9.78564 27.8263 10.05 27.7252 10.2783L26.8466 12.2688C26.7713 12.4378 26.6022 12.5403 26.4239 12.5403Z" fill="#2B4E56" stroke="#2B4E56" stroke-width="0.75"/>
<path d="M30.0476 15.1314C29.9245 15.1314 29.8032 15.0846 29.7131 14.9893C29.5385 14.8077 29.5477 14.5236 29.7333 14.3546L31.3471 12.8676C31.5309 12.6968 31.8231 12.7057 31.9959 12.8874C32.1686 13.069 32.1613 13.3531 31.9757 13.5221L30.3619 15.0091C30.2737 15.09 30.1597 15.1314 30.0476 15.1314Z" fill="#2B4E56" stroke="#2B4E56" stroke-width="0.75"/>
<path d="M32.3228 18.9146C32.1353 18.9146 31.9589 18.8013 31.8909 18.6179C31.8045 18.3841 31.9276 18.127 32.1666 18.0425L34.249 17.3035C34.488 17.219 34.7508 17.3394 34.8372 17.5732C34.9236 17.807 34.8004 18.0641 34.5615 18.1486L32.479 18.8876C32.4276 18.9056 32.3743 18.9146 32.3228 18.9146Z" fill="#2B4E56" stroke="#2B4E56" stroke-width="0.75"/>
<path d="M35.0897 23.4026C35.0897 23.4026 35.0713 23.4026 35.0621 23.4026L32.851 23.2732C32.5974 23.2588 32.4044 23.0448 32.4209 22.7967C32.4356 22.5485 32.6451 22.3597 32.908 22.3741L35.1191 22.5036C35.3727 22.518 35.5657 22.7319 35.5492 22.9801C35.5345 23.2192 35.3323 23.4026 35.0915 23.4026H35.0897Z" fill="#2B4E56" stroke="#2B4E56" stroke-width="0.75"/>
<path d="M22.0496 27.3189C19.0482 27.3189 16.6055 24.9292 16.6055 21.9929C16.6055 19.0566 19.0482 16.667 22.0496 16.667C25.051 16.667 27.4937 19.0566 27.4937 21.9929C27.4937 24.9292 25.051 27.3189 22.0496 27.3189ZM22.0496 17.566C19.5554 17.566 17.5245 19.5511 17.5245 21.9929C17.5245 24.4348 19.5536 26.4199 22.0496 26.4199C24.5456 26.4199 26.5747 24.4348 26.5747 21.9929C26.5747 19.5511 24.5456 17.566 22.0496 17.566Z" fill="#2B4E56" stroke="#2B4E56" stroke-width="0.75"/>
</svg>
