<svg width="45" height="45" viewBox="0 0 45 45" fill="none" xmlns="http://www.w3.org/2000/svg">
<path d="M32.942 0H12.058C5.39855 0 0 5.39855 0 12.058V32.942C0 39.6015 5.39855 45 12.058 45H32.942C39.6015 45 45 39.6015 45 32.942V12.058C45 5.39855 39.6015 0 32.942 0Z" fill="#F4F8F9"/>
<path d="M30.4902 16.0752V32.0752H27.5918V16.0752H30.4902Z" fill="#2B4E56"/>
<path d="M13.7266 32.0752H10.6328L16.2656 16.0752H19.8438L25.4844 32.0752H22.3906L18.1172 19.3564H17.9922L13.7266 32.0752ZM13.8281 25.8018H22.2656V28.1299H13.8281V25.8018Z" fill="#2B4E56"/>
<path d="M37.1398 13.1294C36.268 13.0326 35.4552 12.6419 34.8349 12.0216C34.2147 11.4014 33.824 10.5886 33.7272 9.7168C33.6306 10.5886 33.2402 11.4015 32.6201 12.0217C32 12.642 31.1872 13.0327 30.3154 13.1294C31.1871 13.2258 32 13.6163 32.6202 14.2364C33.2403 14.8566 33.6308 15.6694 33.7272 16.5412C33.8239 15.6694 34.2146 14.8566 34.8348 14.2365C35.4551 13.6164 36.268 13.226 37.1398 13.1294Z" fill="#2B4E56"/>
<path d="M38.5189 9.71698C38.1666 9.67793 37.8381 9.52009 37.5874 9.26943C37.3367 9.01876 37.1789 8.69022 37.1398 8.33789C37.1008 8.69022 36.9429 9.01876 36.6923 9.26943C36.4416 9.52009 36.1131 9.67793 35.7607 9.71698C36.1131 9.75603 36.4416 9.91388 36.6923 10.1645C36.9429 10.4152 37.1008 10.7437 37.1398 11.0961C37.1789 10.7437 37.3367 10.4152 37.5874 10.1645C37.8381 9.91388 38.1666 9.75603 38.5189 9.71698Z" fill="#2B4E56"/>
</svg>
