<svg width="45" height="45" viewBox="0 0 45 45" fill="none" xmlns="http://www.w3.org/2000/svg">
<rect width="45" height="45" rx="12.0581" fill="#F4F8F9"/>
<path d="M20.7453 17.6705H24.256C25.3142 17.6705 26.1738 16.8315 26.1738 15.7986V12.3719C26.1738 11.3391 25.3142 10.5 24.256 10.5H20.7453C19.6871 10.5 18.8275 11.3391 18.8275 12.3719V15.7986C18.8275 16.8315 19.6871 17.6705 20.7453 17.6705ZM24.256 11.2334C24.8991 11.2334 25.4225 11.7442 25.4225 12.3719V15.7986C25.4225 16.4263 24.8991 16.9372 24.256 16.9372H20.7453C20.1022 16.9372 19.5789 16.4263 19.5789 15.7986V12.3719C19.5789 11.7442 20.1022 11.2334 20.7453 11.2334H24.256Z" fill="#2B4E56" stroke="#2B4E56"/>
<path d="M30.5715 32.5H34.0822C35.1404 32.5 36 31.6609 36 30.6281V27.2014C36 26.1685 35.1404 25.3295 34.0822 25.3295H30.5715C29.5133 25.3295 28.6537 26.1685 28.6537 27.2014V30.6281C28.6537 31.6609 29.5133 32.5 30.5715 32.5ZM34.0822 26.0613C34.7253 26.0613 35.2486 26.5721 35.2486 27.1998V30.6265C35.2486 31.2542 34.7253 31.765 34.0822 31.765H30.5715C29.9284 31.765 29.405 31.2542 29.405 30.6265V27.1998C29.405 26.5721 29.9284 26.0613 30.5715 26.0613H34.0822Z" fill="#2B4E56" stroke="#2B4E56"/>
<path d="M20.7453 32.5H24.256C25.3142 32.5 26.1738 31.6609 26.1738 30.6281V27.2014C26.1738 26.1685 25.3142 25.3295 24.256 25.3295H20.7453C19.6871 25.3295 18.8275 26.1685 18.8275 27.2014V30.6281C18.8275 31.6609 19.6871 32.5 20.7453 32.5ZM24.256 26.0613C24.8991 26.0613 25.4225 26.5721 25.4225 27.1998V30.6265C25.4225 31.2542 24.8991 31.765 24.256 31.765H20.7453C20.1022 31.765 19.5789 31.2542 19.5789 30.6265V27.1998C19.5789 26.5721 20.1022 26.0613 20.7453 26.0613H24.256Z" fill="#2B4E56" stroke="#2B4E56"/>
<path d="M10.9172 32.5H14.4279C15.4861 32.5 16.3457 31.6609 16.3457 30.6281V27.2014C16.3457 26.1685 15.4861 25.3295 14.4279 25.3295H10.9172C9.85901 25.3295 8.99937 26.1685 8.99937 27.2014V30.6281C8.99937 31.6609 9.85901 32.5 10.9172 32.5ZM14.4279 26.0613C15.071 26.0613 15.5943 26.5721 15.5943 27.1998V30.6265C15.5943 31.2542 15.071 31.765 14.4279 31.765H10.9172C10.2741 31.765 9.75073 31.2542 9.75073 30.6265V27.1998C9.75073 26.5721 10.2741 26.0613 10.9172 26.0613H14.4279Z" fill="#2B4E56" stroke="#2B4E56"/>
<path d="M12.6738 24.1045C12.8805 24.1045 13.0495 23.9411 13.0495 23.7378V22.4583C13.0495 22.0436 13.3956 21.7041 13.8205 21.7041H31.1807C31.6056 21.7041 31.9518 22.042 31.9518 22.4583V23.7378C31.9518 23.9395 32.1191 24.1045 32.3274 24.1045C32.5358 24.1045 32.7031 23.9411 32.7031 23.7378V22.4583C32.7031 21.6385 32.0207 20.9724 31.1807 20.9724H13.8222C12.9822 20.9724 12.2997 21.6385 12.2997 22.4583V23.7378C12.2997 23.9395 12.4671 24.1045 12.6754 24.1045H12.6738Z" fill="#2B4E56" stroke="#2B4E56"/>
<path d="M22.4993 24.1045C22.706 24.1045 22.875 23.9411 22.875 23.7378V19.1309C22.875 18.9291 22.7077 18.7642 22.4993 18.7642C22.291 18.7642 22.1236 18.9275 22.1236 19.1309V23.7378C22.1236 23.9395 22.291 24.1045 22.4993 24.1045Z" fill="#2B4E56" stroke="#2B4E56"/>
</svg>
