<svg width="45" height="45" viewBox="0 0 45 45" fill="none" xmlns="http://www.w3.org/2000/svg">
<rect width="45" height="45" rx="12.0581" fill="#F4F8F9"/>
<path d="M32.5 32.6591C32.9142 32.6591 33.25 32.9948 33.25 33.4091C33.25 33.8233 32.9142 34.1591 32.5 34.1591H12.5C12.0858 34.1591 11.75 33.8233 11.75 33.4091C11.75 32.9948 12.0858 32.6591 12.5 32.6591H32.5Z" fill="#2B4E56"/>
<path d="M20.8408 12.5909C20.8408 12.4528 20.7289 12.3409 20.5908 12.3409H15.3184C15.1803 12.3409 15.0684 12.4528 15.0684 12.5909V29.6817C15.0684 29.8198 15.1803 29.9317 15.3184 29.9317H20.5908C20.7289 29.9317 20.8408 29.8198 20.8408 29.6817V12.5909ZM22.3408 29.6817C22.3408 30.6482 21.5573 31.4317 20.5908 31.4317H15.3184C14.3519 31.4317 13.5684 30.6482 13.5684 29.6817V12.5909C13.5684 11.6244 14.3519 10.8409 15.3184 10.8409H20.5908C21.5573 10.8409 22.3408 11.6244 22.3408 12.5909V29.6817Z" fill="#2B4E56"/>
<path d="M30.8408 18.9545C30.8408 18.8165 30.7289 18.7045 30.5908 18.7045H25.3184C25.1803 18.7045 25.0684 18.8165 25.0684 18.9545V29.6821C25.0685 29.82 25.1804 29.9321 25.3184 29.9321H30.5908C30.7288 29.9321 30.8407 29.82 30.8408 29.6821V18.9545ZM32.3408 29.6821C32.3407 30.6484 31.5572 31.4321 30.5908 31.4321H25.3184C24.352 31.4321 23.5685 30.6484 23.5684 29.6821V18.9545C23.5684 17.988 24.3519 17.2045 25.3184 17.2045H30.5908C31.5573 17.2045 32.3408 17.988 32.3408 18.9545V29.6821Z" fill="#2B4E56"/>
</svg>
