<svg width="45" height="45" viewBox="0 0 45 45" fill="none" xmlns="http://www.w3.org/2000/svg">
<rect width="45" height="45" rx="12.0581" fill="#F4F8F9"/>
<path d="M15.796 31C12.9043 31 10.5508 28.6895 10.5508 25.8507C10.5508 23.0119 12.9043 20.7014 15.796 20.7014C18.6876 20.7014 21.0411 23.0119 21.0411 25.8507C21.0411 28.6895 18.6876 31 15.796 31ZM15.796 21.4998C13.3532 21.4998 11.3655 23.4512 11.3655 25.8492C11.3655 28.2473 13.3532 30.1987 15.796 30.1987C18.2387 30.1987 20.2264 28.2473 20.2264 25.8492C20.2264 23.4512 18.2387 21.4998 15.796 21.4998Z" fill="#2B4E56" stroke="#2B4E56" stroke-width="0.75"/>
<path d="M20.5563 27.0987C20.5472 27.0987 20.5367 27.0987 20.5276 27.0987C20.3039 27.0839 20.1346 26.8925 20.1497 26.6728L20.6017 20.329C20.7256 18.5854 19.5058 17.0554 17.7644 16.772L17.6768 16.7586C16.0684 16.5064 14.4949 17.4249 13.9326 18.94L12.4361 22.9793C12.359 23.1871 12.1247 23.2939 11.9146 23.2182C11.703 23.1425 11.5942 22.914 11.6713 22.7063L13.1677 18.667C13.8615 16.7913 15.8115 15.6576 17.8068 15.9692L17.899 15.984C20.0575 16.3357 21.5691 18.2277 21.4149 20.3854L20.9629 26.7292C20.9478 26.9399 20.7694 27.1017 20.5578 27.1017L20.5563 27.0987Z" fill="#2B4E56" stroke="#2B4E56" stroke-width="0.75"/>
<path d="M20.0505 17.9844C20.0278 17.9844 20.0051 17.9829 19.981 17.9784C19.7588 17.9413 19.6106 17.7351 19.6484 17.5169L19.7633 16.8566C19.7799 16.7557 19.789 16.6548 19.789 16.5568C19.789 15.6843 19.1496 14.9542 18.2698 14.8191C17.3705 14.6826 16.5073 15.2272 16.264 16.0879L16.0886 16.7037C16.0282 16.9159 15.803 17.0406 15.5868 16.9812C15.3706 16.9219 15.2437 16.7008 15.3041 16.4886L15.4795 15.8727C15.8347 14.6247 17.0878 13.8308 18.3953 14.0312C19.6741 14.227 20.6037 15.2895 20.6037 16.5583C20.6037 16.6993 20.5916 16.8447 20.5659 16.9901L20.4511 17.652C20.4178 17.8464 20.2455 17.9844 20.0505 17.9844Z" fill="#2B4E56" stroke="#2B4E56" stroke-width="0.75"/>
<path d="M30.3057 31C27.4141 31 25.0605 28.6895 25.0605 25.8507C25.0605 23.0119 27.4141 20.7014 30.3057 20.7014C33.1974 20.7014 35.5509 23.0119 35.5509 25.8507C35.5509 28.6895 33.1974 31 30.3057 31ZM30.3057 21.4998C27.863 21.4998 25.8753 23.4512 25.8753 25.8492C25.8753 28.2473 27.863 30.1987 30.3057 30.1987C32.7484 30.1987 34.7362 28.2473 34.7362 25.8492C34.7362 23.4512 32.7484 21.4998 30.3057 21.4998Z" fill="#2B4E56" stroke="#2B4E56" stroke-width="0.75"/>
<path d="M25.5456 27.0987C25.334 27.0987 25.1556 26.937 25.1405 26.7262L24.6885 20.3824C24.5344 18.2247 26.0459 16.3327 28.2045 15.981L28.2967 15.9662C30.2905 15.6546 32.2404 16.7883 32.9357 18.664L34.4322 22.7033C34.5093 22.911 34.4004 23.1396 34.1888 23.2152C33.9772 23.2909 33.7444 23.1841 33.6673 22.9763L32.1709 18.937C31.6101 17.4205 30.0335 16.5034 28.4267 16.7557L28.339 16.769C26.5977 17.0524 25.3778 18.5824 25.5018 20.326L25.9537 26.6698C25.9688 26.8895 25.8011 27.0809 25.5758 27.0957C25.5668 27.0957 25.5562 27.0957 25.5471 27.0957L25.5456 27.0987Z" fill="#2B4E56" stroke="#2B4E56" stroke-width="0.75"/>
<path d="M26.0513 17.9844C25.8563 17.9844 25.684 17.8464 25.6507 17.652L25.5358 16.9916C25.5101 16.8432 25.498 16.6978 25.498 16.5583C25.498 15.2895 26.4262 14.227 27.7065 14.0312C29.014 13.8308 30.2686 14.6247 30.6223 15.8772L30.7976 16.493C30.8581 16.7052 30.7311 16.9263 30.515 16.9857C30.2988 17.045 30.0736 16.9204 30.0131 16.7082L29.8378 16.0923C29.5944 15.2302 28.7313 14.6856 27.8319 14.8221C26.9522 14.9571 26.3128 15.6872 26.3128 16.5598C26.3128 16.6562 26.3219 16.7571 26.3385 16.861L26.4534 17.5199C26.4912 17.738 26.343 17.9443 26.1208 17.9814C26.0981 17.9858 26.074 17.9873 26.0513 17.9873V17.9844Z" fill="#2B4E56" stroke="#2B4E56" stroke-width="0.75"/>
<path d="M23.0495 26.4933C21.5575 26.4933 20.3438 25.3017 20.3438 23.837C20.3438 22.3724 21.5575 21.1808 23.0495 21.1808C24.5414 21.1808 25.7552 22.3724 25.7552 23.837C25.7552 25.3017 24.5414 26.4933 23.0495 26.4933ZM23.0495 21.9806C22.0065 21.9806 21.1585 22.8131 21.1585 23.837C21.1585 24.861 22.0065 25.6934 23.0495 25.6934C24.0925 25.6934 24.9405 24.861 24.9405 23.837C24.9405 22.8131 24.0925 21.9806 23.0495 21.9806Z" fill="#2B4E56" stroke="#2B4E56" stroke-width="0.75"/>
<path d="M25.1101 20.9775C24.8849 20.9775 24.7035 20.7979 24.7035 20.5783C24.7035 19.6835 23.9628 18.9563 23.0513 18.9563C22.1398 18.9563 21.3992 19.6835 21.3992 20.5783C21.3992 20.7994 21.2163 20.9775 20.9926 20.9775C20.7688 20.9775 20.5859 20.7979 20.5859 20.5783C20.5859 19.2427 21.6924 18.1565 23.0528 18.1565C24.4133 18.1565 25.5197 19.2427 25.5197 20.5783C25.5197 20.7994 25.3368 20.9775 25.1131 20.9775H25.1101Z" fill="#2B4E56" stroke="#2B4E56" stroke-width="0.75"/>
</svg>
