<svg width="45" height="45" viewBox="0 0 45 45" fill="none" xmlns="http://www.w3.org/2000/svg">
<rect width="45" height="45" rx="12.0581" fill="#F4F8F9"/>
<path d="M14.5831 35.8985H9.9971C9.7223 35.8985 9.5 35.6837 9.5 35.4181V25.7033C9.5 25.4377 9.7223 25.2229 9.9971 25.2229H14.5848C14.8596 25.2229 15.0819 25.4377 15.0819 25.7033V35.4181C15.0819 35.6837 14.8596 35.8985 14.5848 35.8985H14.5831ZM10.4942 34.9378H14.0877V26.1836H10.4942V34.9378Z" fill="#2B4E56" stroke="#2B4E56" stroke-width="0.5"/>
<path d="M19.1707 35.8984H14.583C14.3082 35.8984 14.0859 35.6836 14.0859 35.4181V21.9266C14.0859 21.661 14.3082 21.4462 14.583 21.4462H19.1707C19.4455 21.4462 19.6678 21.661 19.6678 21.9266V35.4181C19.6678 35.6836 19.4455 35.8984 19.1707 35.8984ZM15.0801 34.9378H18.6736V22.4052H15.0801V34.9378Z" fill="#2B4E56" stroke="#2B4E56" stroke-width="0.5"/>
<path d="M23.7586 35.8984H19.1709C18.8961 35.8984 18.6738 35.6837 18.6738 35.4181V17.5545C18.6738 17.289 18.8961 17.0742 19.1709 17.0742H23.7586C24.0334 17.0742 24.2557 17.289 24.2557 17.5545V21.9181C24.2557 21.9773 24.2452 22.0348 24.2225 22.0906C23.9232 22.845 23.7709 23.6416 23.7709 24.4602C23.7709 25.2787 23.9232 26.0753 24.2225 26.8297C24.2435 26.8838 24.2557 26.943 24.2557 27.0022V35.4215C24.2557 35.687 24.0334 35.9018 23.7586 35.9018V35.8984ZM19.668 34.9378H23.2615V27.0867C22.9395 26.2479 22.7767 25.365 22.7767 24.4585C22.7767 23.5519 22.9395 22.6691 23.2615 21.8302V18.0349H19.668V34.9395V34.9378Z" fill="#2B4E56" stroke="#2B4E56" stroke-width="0.5"/>
<path d="M23.7588 22.3968C23.7291 22.3968 23.6993 22.3934 23.6678 22.3883C23.4315 22.346 23.2617 22.1481 23.2617 21.9164V13.4988C23.2617 13.2333 23.484 13.0185 23.7588 13.0185H28.3465C28.6213 13.0185 28.8436 13.2333 28.8436 13.4988V17.6966C28.8436 17.9046 28.7053 18.089 28.5006 18.1533C26.5542 18.7672 24.9543 20.2386 24.2244 22.0889C24.1492 22.2767 23.9636 22.3984 23.7606 22.3984L23.7588 22.3968ZM24.2542 13.9774V20.0171C25.1469 18.8163 26.3879 17.8877 27.8477 17.355V13.9757H24.2542V13.9774Z" fill="#2B4E56" stroke="#2B4E56" stroke-width="0.5"/>
<path d="M28.3446 35.8984H23.7569C23.4821 35.8984 23.2598 35.6836 23.2598 35.4181V26.9988C23.2598 26.7671 23.4313 26.5692 23.6658 26.5269C23.9004 26.4846 24.1349 26.6115 24.2207 26.828C24.9524 28.68 26.5504 30.1514 28.4968 30.7653C28.7016 30.8296 28.8399 31.014 28.8399 31.222V35.4181C28.8399 35.6836 28.6176 35.8984 28.3428 35.8984H28.3446ZM24.254 34.9378H27.8475V31.5602C26.4069 31.0309 25.1519 30.0871 24.254 28.8846V34.9361V34.9378Z" fill="#2B4E56" stroke="#2B4E56" stroke-width="0.5"/>
<path d="M32.9327 18.1769C32.8801 18.1769 32.8276 18.1685 32.7769 18.1533C31.4151 17.7169 29.8818 17.7152 28.5007 18.1533C28.3502 18.2006 28.1839 18.1769 28.0544 18.0856C27.9249 17.9943 27.8496 17.8505 27.8496 17.6966V9.37877C27.8496 9.11323 28.0719 8.89844 28.3467 8.89844H32.9344C33.2092 8.89844 33.4315 9.11323 33.4315 9.37877V17.6966C33.4315 17.8505 33.3545 17.996 33.225 18.0856C33.1392 18.1448 33.0377 18.1769 32.9344 18.1769H32.9327ZM28.8421 9.8591V17.0641C30.0166 16.7968 31.2698 16.7985 32.4356 17.0641V9.8591H28.8421Z" fill="#2B4E56" stroke="#2B4E56" stroke-width="0.5"/>
<path d="M32.9325 35.8985H28.3448C28.07 35.8985 27.8477 35.6837 27.8477 35.4181V31.222C27.8477 31.0681 27.9247 30.9226 28.0524 30.833C28.182 30.7434 28.3483 30.718 28.4988 30.7653C29.8798 31.2034 31.4131 31.2017 32.7749 30.7653C32.9255 30.7163 33.0917 30.7417 33.2213 30.8313C33.3508 30.9209 33.4278 31.0664 33.4278 31.2203V35.4164C33.4278 35.682 33.2055 35.8968 32.9307 35.8968L32.9325 35.8985ZM28.8419 34.9378H32.4354V31.8545C31.2696 32.1201 30.0164 32.1201 28.8419 31.8545V34.9378Z" fill="#2B4E56" stroke="#2B4E56" stroke-width="0.5"/>
<path d="M30.6382 32.0558C29.8015 32.0558 28.9771 31.9289 28.1895 31.6786C25.9613 30.975 24.1304 29.2905 23.2937 27.1713C22.9506 26.3087 22.7773 25.3954 22.7773 24.4584C22.7773 23.5215 22.9506 22.6098 23.2955 21.7456C24.1444 19.5976 25.9297 17.9537 28.1912 17.2399C29.7718 16.7376 31.5257 16.741 33.0887 17.2399C36.3251 18.2615 38.5008 21.1621 38.5008 24.4567C38.5008 27.7514 36.3251 30.6554 33.087 31.6769C32.3063 31.9272 31.4819 32.0541 30.64 32.0541L30.6382 32.0558ZM30.6382 17.8234C29.9066 17.8234 29.1872 17.9351 28.4993 18.1532C26.5511 18.7689 24.953 20.2403 24.2214 22.0889C23.9221 22.8432 23.7698 23.6398 23.7698 24.4584C23.7698 25.277 23.9221 26.0736 24.2214 26.828C24.953 28.6799 26.5511 30.1514 28.4993 30.767C29.8821 31.2067 31.4136 31.2034 32.7754 30.767C35.6057 29.874 37.5066 27.3387 37.5066 24.4584C37.5066 21.5781 35.6057 19.0463 32.7789 18.1532C32.0945 17.9351 31.3751 17.8234 30.64 17.8234H30.6382Z" fill="#2B4E56" stroke="#2B4E56" stroke-width="0.5"/>
<path d="M29.8508 26.9666C29.7387 26.9666 29.625 26.9294 29.5322 26.855L27.0292 24.8271C26.8191 24.6563 26.7911 24.3536 26.9679 24.1506C27.1447 23.9477 27.458 23.9206 27.6681 24.0914L29.8105 25.8267L33.9169 21.5984C34.1041 21.4056 34.4192 21.3955 34.6188 21.5765C34.8183 21.7574 34.8288 22.0619 34.6415 22.2547L30.2148 26.8144C30.1168 26.9142 29.9855 26.9666 29.8525 26.9666H29.8508Z" fill="#2B4E56" stroke="#2B4E56" stroke-width="0.5"/>
</svg>
