<svg width="45" height="45" viewBox="0 0 45 45" fill="none" xmlns="http://www.w3.org/2000/svg">
<rect width="45" height="45" rx="12.0581" fill="#F7F9FF"/>
<rect x="-0.8" y="0.8" width="6.76003" height="6.76003" rx="1.2" transform="matrix(-1 0 0 1 33.5222 8.16846)" stroke="#2B4E56" stroke-width="1.6"/>
<rect x="-0.8" y="0.8" width="6.76003" height="7.95432" rx="1.2" transform="matrix(-1 0 0 1 33.5222 17.7227)" stroke="#2B4E56" stroke-width="1.6"/>
<rect x="-0.8" y="0.8" width="6.76003" height="6.76003" rx="1.2" transform="matrix(-1 0 0 1 33.5222 28.4717)" stroke="#2B4E56" stroke-width="1.6"/>
<rect x="-0.8" y="0.8" width="6.76003" height="7.95432" rx="1.2" transform="matrix(-1 0 0 1 17.3109 17.7227)" stroke="#2B4E56" stroke-width="1.6"/>
<path d="M18.4021 22.5H26.7621" stroke="#2B4E56" stroke-width="1.6" stroke-linecap="round"/>
<path d="M26.7621 12.9458H24.8375C24.3163 12.9664 23.2738 13.3164 23.2738 14.5519C23.2738 15.7874 23.2738 17.6612 23.2738 18.4437C23.2738 19.6174 22.5641 20.1115 21.6499 20.1115C20.7357 20.1115 19.1038 20.1115 18.4021 20.1115" stroke="#2B4E56" stroke-width="1.6" stroke-linecap="round"/>
<path d="M26.7621 32.0542H24.8375C24.3163 32.0336 23.2738 31.6836 23.2738 30.4481C23.2738 29.2126 23.2738 27.3388 23.2738 26.5563C23.2738 25.3826 22.5641 24.8885 21.6499 24.8885C20.7357 24.8885 19.1038 24.8885 18.4021 24.8885" stroke="#2B4E56" stroke-width="1.6" stroke-linecap="round"/>
</svg>
