<svg width="45" height="45" viewBox="0 0 45 45" fill="none" xmlns="http://www.w3.org/2000/svg">
<path d="M0 12.0581C0 5.39861 5.39861 0 12.0581 0H32.9419C39.6014 0 45 5.39861 45 12.0581V32.9419C45 39.6014 39.6014 45 32.9419 45H12.0581C5.39861 45 0 39.6014 0 32.9419V12.0581Z" fill="#F7F9FF"/>
<circle cx="23.848" cy="22.1023" r="12.8518" stroke="#2B4E56" stroke-width="1.6"/>
<path d="M22.6657 19.8079L18.4513 24.9057L25.2436 24.273L28.9742 18.8303L22.6657 19.8079Z" stroke="#2B4E56" stroke-width="1.6" stroke-linejoin="round"/>
<line x1="23.7509" y1="12.4505" x2="23.7509" y2="10.0505" stroke="#2B4E56" stroke-width="1.6" stroke-linecap="round" stroke-linejoin="round"/>
<line x1="23.7509" y1="34.9495" x2="23.7509" y2="32.5495" stroke="#2B4E56" stroke-width="1.6" stroke-linecap="round" stroke-linejoin="round"/>
<line x1="11.3509" y1="22.4505" x2="13.7509" y2="22.4505" stroke="#2B4E56" stroke-width="1.6" stroke-linecap="round" stroke-linejoin="round"/>
<line x1="33.564" y1="22.4505" x2="35.964" y2="22.4505" stroke="#2B4E56" stroke-width="1.6" stroke-linecap="round" stroke-linejoin="round"/>
</svg>
