<svg width="45" height="45" viewBox="0 0 45 45" fill="none" xmlns="http://www.w3.org/2000/svg">
<rect width="45" height="45" rx="12.0581" fill="#F4F8F9"/>
<path d="M24.0632 36.5C24.0147 36.5 23.9678 36.4932 23.921 36.4763C17.921 34.4791 13.7096 29.9261 11.747 23.3099C10.2729 18.3456 10.5707 14.0381 10.5841 13.8586C10.6025 13.6183 10.7999 13.4338 11.0375 13.4338C17.9578 13.4321 23.7152 8.65402 23.7721 8.60663C23.9394 8.46446 24.1837 8.46446 24.3527 8.60663C24.4095 8.65572 30.177 13.4338 37.0889 13.4338C37.3315 13.4338 37.5322 13.6285 37.5423 13.8739C37.5506 14.0567 37.7129 18.4167 36.172 23.4064C34.1173 30.0581 29.9779 34.5789 24.2037 36.478C24.1586 36.4932 24.11 36.5 24.0632 36.5ZM11.4709 14.3461C11.4358 15.5427 11.4508 19.1377 12.6237 23.0746C14.5127 29.4116 18.361 33.6108 24.0632 35.5572C29.5395 33.7056 33.3192 29.5351 35.2969 23.1576C36.5233 19.2037 36.6404 15.5681 36.6404 14.3461C30.4146 14.1768 25.3214 10.526 24.0632 9.546C22.8033 10.526 17.7035 14.1819 11.4709 14.3461Z" fill="#2B4E56" stroke="#2B4E56"/>
<path d="M24.0639 28.5805C20.2458 28.5805 17.1387 25.4391 17.1387 21.5767C17.1387 17.7143 20.2458 14.5729 24.0639 14.5729C27.8821 14.5729 30.9875 17.7143 30.9875 21.5767C30.9875 25.4391 27.8821 28.5805 24.0639 28.5805ZM24.0639 15.4903C20.746 15.4903 18.0472 18.2204 18.0472 21.5767C18.0472 24.9331 20.746 27.6632 24.0639 27.6632C27.3818 27.6632 30.0807 24.9331 30.0807 21.5767C30.0807 18.2204 27.3818 15.4903 24.0639 15.4903Z" fill="#2B4E56" stroke="#2B4E56"/>
<path d="M23.1774 23.8498C23.0737 23.8498 22.9716 23.8143 22.8863 23.7432L20.9722 22.1302C20.7798 21.9677 20.753 21.6782 20.9136 21.4836C21.0743 21.289 21.3604 21.2619 21.5528 21.4244L23.1523 22.7733L26.5422 19.4339C26.7212 19.2579 27.009 19.2613 27.1847 19.4424C27.3604 19.6235 27.3554 19.9146 27.1763 20.0923L23.4937 23.7195C23.4067 23.8058 23.2912 23.8498 23.1774 23.8498Z" fill="#2B4E56" stroke="#2B4E56"/>
</svg>
