<svg width="45" height="45" viewBox="0 0 45 45" fill="none" xmlns="http://www.w3.org/2000/svg">
<rect width="45" height="45" rx="12.0581" fill="#F4F8F9"/>
<g clip-path="url(#clip0_7904_1536)">
<path d="M33.5869 34.9998H13.8877C13.6597 34.9998 13.4747 34.8197 13.4747 34.5978V10.4017C13.4747 10.1798 13.6597 9.99976 13.8877 9.99976H33.5886C33.8166 9.99976 34.0016 10.1798 34.0016 10.4017V34.5978C34.0016 34.8197 33.8166 34.9998 33.5886 34.9998H33.5869ZM14.3007 34.1958H33.1756V10.8037H14.3007V34.1958Z" fill="#2B4E56" stroke="#2B4E56" stroke-width="0.737615"/>
<path d="M16.835 34.9998C16.607 34.9998 16.422 34.8197 16.422 34.5978V10.4017C16.422 10.1798 16.607 9.99976 16.835 9.99976C17.063 9.99976 17.248 10.1798 17.248 10.4017V34.5978C17.248 34.8197 17.063 34.9998 16.835 34.9998Z" fill="#2B4E56" stroke="#2B4E56" stroke-width="0.737615"/>
<path d="M13.8877 15.4856H12.6503C11.74 15.4856 10.9998 14.7653 10.9998 13.8794C10.9998 12.9935 11.74 12.2732 12.6503 12.2732H13.8877C14.1156 12.2732 14.3007 12.4533 14.3007 12.6751V15.0837C14.3007 15.3055 14.1156 15.4856 13.8877 15.4856ZM12.6503 13.0787C12.1959 13.0787 11.8259 13.4389 11.8259 13.881C11.8259 14.3232 12.1959 14.6833 12.6503 14.6833H13.4746V13.0787H12.6503Z" fill="#2B4E56" stroke="#2B4E56" stroke-width="0.737615"/>
<path d="M13.8877 19.7964H12.6503C11.74 19.7964 10.9998 19.0761 10.9998 18.1902C10.9998 17.3043 11.74 16.584 12.6503 16.584H13.8877C14.1156 16.584 14.3007 16.7641 14.3007 16.9859V19.3945C14.3007 19.6163 14.1156 19.7964 13.8877 19.7964ZM12.6503 17.3879C12.1959 17.3879 11.8259 17.748 11.8259 18.1902C11.8259 18.6323 12.1959 18.9925 12.6503 18.9925H13.4746V17.3879H12.6503Z" fill="#2B4E56" stroke="#2B4E56" stroke-width="0.737615"/>
<path d="M13.8877 24.1052H12.6503C11.74 24.1052 10.9998 23.3849 10.9998 22.499C10.9998 21.6131 11.74 20.8928 12.6503 20.8928H13.8877C14.1156 20.8928 14.3007 21.0729 14.3007 21.2948V23.7033C14.3007 23.9252 14.1156 24.1052 13.8877 24.1052ZM12.6503 21.6983C12.1959 21.6983 11.8259 22.0585 11.8259 22.5006C11.8259 22.9428 12.1959 23.3029 12.6503 23.3029H13.4746V21.6983H12.6503Z" fill="#2B4E56" stroke="#2B4E56" stroke-width="0.737615"/>
<path d="M13.8877 28.416H12.6503C11.74 28.416 10.9998 27.6957 10.9998 26.8098C10.9998 25.9239 11.74 25.2036 12.6503 25.2036H13.8877C14.1156 25.2036 14.3007 25.3837 14.3007 25.6056V28.0141C14.3007 28.236 14.1156 28.416 13.8877 28.416ZM12.6503 26.0075C12.1959 26.0075 11.8259 26.3677 11.8259 26.8098C11.8259 27.252 12.1959 27.6121 12.6503 27.6121H13.4746V26.0075H12.6503Z" fill="#2B4E56" stroke="#2B4E56" stroke-width="0.737615"/>
<path d="M13.8877 32.7249H12.6503C11.74 32.7249 10.9998 32.0046 10.9998 31.1187C10.9998 30.2328 11.74 29.5125 12.6503 29.5125H13.8877C14.1156 29.5125 14.3007 29.6925 14.3007 29.9144V32.3229C14.3007 32.5448 14.1156 32.7249 13.8877 32.7249ZM12.6503 30.318C12.1959 30.318 11.8259 30.6781 11.8259 31.1203C11.8259 31.5624 12.1959 31.9226 12.6503 31.9226H13.4746V30.318H12.6503Z" fill="#2B4E56" stroke="#2B4E56" stroke-width="0.737615"/>
<path d="M26.8911 20.3879H20.1424C19.9144 20.3879 19.7294 20.2079 19.7294 19.986V13.8811C19.7294 13.6592 19.9144 13.4791 20.1424 13.4791H26.8911C27.119 13.4791 27.3041 13.6592 27.3041 13.8811V19.986C27.3041 20.2079 27.119 20.3879 26.8911 20.3879ZM20.5554 19.584H26.478V14.283H20.5554V19.584Z" fill="#2B4E56" stroke="#2B4E56" stroke-width="0.737615"/>
<path d="M29.3196 25.3529H20.1424C19.9144 25.3529 19.7294 25.1728 19.7294 24.9509C19.7294 24.729 19.9144 24.549 20.1424 24.549H29.3196C29.5476 24.549 29.7326 24.729 29.7326 24.9509C29.7326 25.1728 29.5476 25.3529 29.3196 25.3529Z" fill="#2B4E56" stroke="#2B4E56" stroke-width="0.737615"/>
<path d="M29.3196 30.3178H20.1424C19.9144 30.3178 19.7294 30.1378 19.7294 29.9159C19.7294 29.694 19.9144 29.5139 20.1424 29.5139H29.3196C29.5476 29.5139 29.7326 29.694 29.7326 29.9159C29.7326 30.1378 29.5476 30.3178 29.3196 30.3178Z" fill="#2B4E56" stroke="#2B4E56" stroke-width="0.737615"/>
</g>
<defs>
<clipPath id="clip0_7904_1536">
<rect width="24" height="29" fill="white" transform="translate(10.5508 8)"/>
</clipPath>
</defs>
</svg>
