<svg width="22" height="22" viewBox="0 0 22 22" fill="none" xmlns="http://www.w3.org/2000/svg">
<g clip-path="url(#clip0_1345_21865)">
<path d="M18.6816 7.85603L17.5541 9.55186C18.0979 10.6363 18.3641 11.8388 18.3289 13.0514C18.2937 14.2641 17.9582 15.4491 17.3525 16.5002H4.64745C3.86019 15.1345 3.53397 13.5514 3.71717 11.9857C3.90036 10.42 4.58321 8.95495 5.66448 7.80783C6.74575 6.66072 8.16788 5.89256 9.72005 5.61725C11.2722 5.34193 12.8718 5.57411 14.2816 6.27936L15.9775 5.15186C14.2509 4.04472 12.2029 3.54861 10.1611 3.74288C8.11929 3.93715 6.20161 4.81058 4.71482 6.22345C3.22803 7.63633 2.25804 9.50701 1.95999 11.5363C1.66194 13.5655 2.05306 15.6361 3.07079 17.4169C3.23076 17.6939 3.46045 17.9243 3.73705 18.0852C4.01365 18.246 4.32751 18.3316 4.64745 18.3335H17.3433C17.6663 18.3348 17.984 18.2507 18.2641 18.0897C18.5442 17.9288 18.7768 17.6966 18.9383 17.4169C19.7829 15.9538 20.2067 14.2858 20.1631 12.597C20.1194 10.9082 19.6099 9.26432 18.6908 7.84686L18.6816 7.85603Z" fill="#CD3C4D"/>
<path d="M9.70749 14.1258C9.87776 14.2962 10.08 14.4314 10.3025 14.5237C10.5251 14.616 10.7636 14.6635 11.0046 14.6635C11.2455 14.6635 11.4841 14.616 11.7066 14.5237C11.9292 14.4314 12.1314 14.2962 12.3017 14.1258L17.49 6.34326L9.70749 11.5316C9.53704 11.7019 9.40181 11.9041 9.30955 12.1266C9.21729 12.3492 9.1698 12.5877 9.1698 12.8287C9.1698 13.0696 9.21729 13.3082 9.30955 13.5307C9.40181 13.7533 9.53704 13.9555 9.70749 14.1258Z" fill="#CD3C4D"/>
</g>
<defs>
<clipPath id="clip0_1345_21865">
<rect width="22" height="22" fill="white"/>
</clipPath>
</defs>
</svg>
