<svg width="126" height="62" viewBox="0 0 126 62" fill="none" xmlns="http://www.w3.org/2000/svg">
<path d="M118.665 18.8833V3.93659C118.665 1.76214 116.911 0 114.746 0H22.8322C20.6671 0 18.9131 1.76214 18.9131 3.93659V57.8162C18.9131 59.9906 20.6671 61.7528 22.8322 61.7528H114.746C116.911 61.7528 118.665 59.9906 118.665 57.8162V42.8689L126.001 30.8764L118.665 18.8833Z" fill="url(#paint0_linear_5837_191813)"/>
<path opacity="0.08" d="M18.9131 10.554V54.24C19.6354 54.5562 20.2024 54.8407 20.5523 55.1158C23.5452 52.9513 39.4643 50.1862 39.4643 36.3585C39.4643 28.7835 37.1907 26.8592 37.1907 20.8473C37.1907 17.3605 39.4643 13.2723 39.4643 13.2723L35.7535 9.42432C32.7613 12.4302 23.6637 12.5513 20.5517 9.42432C20.1138 9.86532 19.5556 10.2408 18.9131 10.554Z" fill="black"/>
<path d="M37.8258 11.8788L34.1144 8.03076C31.1222 11.0367 22.0252 11.1571 18.9126 8.03076C15.8 11.1571 6.70298 11.0367 3.71016 8.03076L0 11.8788C0 11.8788 2.27425 15.9669 2.27425 19.4538C2.27425 25.2255 0 27.3893 0 34.9643C0 48.7926 16.1593 51.5577 18.9126 53.7222C21.9048 51.5577 37.8251 48.7926 37.8251 34.9643C37.8251 27.3893 35.5509 25.4656 35.5509 19.4538C35.5509 15.9669 37.8258 11.8788 37.8258 11.8788Z" fill="url(#paint1_linear_5837_191813)"/>
<path d="M25.8564 25.6598H25.7229V23.2215C25.7229 19.5345 22.7363 16.5348 19.0655 16.5348C15.3946 16.5348 12.4087 19.5345 12.4087 23.2215V25.6598H11.9683C11.762 25.6602 11.5579 25.7013 11.3675 25.7806C11.1772 25.8599 11.0043 25.976 10.8588 26.1221C10.7133 26.2683 10.598 26.4416 10.5195 26.6324C10.441 26.8231 10.4009 27.0274 10.4014 27.2336V37.3093C10.4009 37.5155 10.441 37.7198 10.5195 37.9105C10.598 38.1012 10.7133 38.2746 10.8588 38.4208C11.0043 38.5669 11.1772 38.683 11.3675 38.7623C11.5579 38.8416 11.762 38.8826 11.9683 38.883H25.8564C26.0626 38.8826 26.2668 38.8416 26.4571 38.7623C26.6475 38.683 26.8204 38.5669 26.9659 38.4208C27.1114 38.2746 27.2267 38.1012 27.3052 37.9105C27.3837 37.7198 27.4238 37.5155 27.4233 37.3093V27.2336C27.4241 26.8172 27.2595 26.4174 26.9657 26.1223C26.6719 25.8272 26.2729 25.6608 25.8564 25.6598ZM19.5414 32.9099V35.1891C19.5417 35.2719 19.5256 35.3539 19.4941 35.4305C19.4626 35.5071 19.4164 35.5767 19.358 35.6354C19.2996 35.694 19.2302 35.7406 19.1538 35.7725C19.0774 35.8043 18.9954 35.8208 18.9127 35.821C18.8299 35.8208 18.7479 35.8043 18.6715 35.7725C18.5951 35.7406 18.5257 35.694 18.4673 35.6354C18.4089 35.5767 18.3627 35.5071 18.3312 35.4305C18.2997 35.3539 18.2837 35.2719 18.2839 35.1891V32.9099C18.1376 32.8078 18.0181 32.6718 17.9356 32.5136C17.8532 32.3553 17.8103 32.1795 17.8105 32.001C17.8101 31.8559 17.8382 31.7122 17.8934 31.578C17.9486 31.4438 18.0297 31.3218 18.1321 31.219C18.2344 31.1162 18.3561 31.0345 18.49 30.9787C18.6239 30.923 18.7676 30.8941 18.9127 30.8939C19.0577 30.8941 19.2014 30.923 19.3353 30.9787C19.4692 31.0345 19.5909 31.1162 19.6932 31.219C19.7956 31.3218 19.8767 31.4438 19.9319 31.578C19.9871 31.7122 20.0153 31.8559 20.0148 32.001C20.0148 32.3772 19.8277 32.7096 19.5414 32.9099ZM23.8572 23.2222V25.6605H14.2737V23.2222H14.2731C14.2731 20.568 16.4232 18.4079 19.0655 18.4079C21.7084 18.4079 23.8585 20.568 23.8585 23.2222H23.8572ZM58.6247 29.3625V30.5427C58.6247 34.0052 58.0514 38.8569 51.6778 38.8569C46.0951 38.8569 44.9131 35.3532 44.9131 30.7329V15.4675C44.9131 10.7955 47.0226 7.69727 51.757 7.69727C57.4102 7.69727 58.4893 11.4611 58.4893 15.6565V17.0126H53.831V15.1088C53.831 13.0972 53.362 11.952 51.7471 11.952C50.1589 11.952 49.6462 13.0535 49.6462 15.1251V31.1328C49.6462 33.1082 50.0379 34.6433 51.8026 34.6433C53.4805 34.6433 53.9265 33.3097 53.9265 31.056V29.3625H58.6247ZM74.9124 29.3625V30.5427C74.9124 34.0052 74.3386 38.8569 67.9649 38.8569C62.3829 38.8569 61.2008 35.3532 61.2008 30.7329V15.4675C61.2008 10.7955 63.3104 7.69727 68.0448 7.69727C73.698 7.69727 74.7771 11.4611 74.7771 15.6565V17.0126H70.1182V15.1088C70.1182 13.0972 69.6491 11.952 68.0342 11.952C66.4461 11.952 65.934 13.0535 65.934 15.1251V31.1328C65.934 33.1082 66.3257 34.6433 68.0903 34.6433C69.7683 34.6433 70.2136 33.3097 70.2136 31.056V29.3625H74.9124ZM77.6339 8.13827H84.3376C89.1243 8.13827 91.5651 10.5129 91.5651 15.8667V17.6507C91.5651 22.6471 89.7886 25.9661 84.0781 25.9661H82.2822V38.4127H77.6339V8.13827ZM82.2822 22.1518H83.5566C86.4546 22.1518 86.9505 20.452 86.9505 17.4966V16.0083C86.9505 13.8077 86.5519 11.9931 83.9695 11.9931H82.2822V22.1518ZM97.1229 30.315L96.0668 38.4133H91.3393L96.1941 8.13827H102.761L107.802 38.4133H102.944L101.758 30.315H97.1229ZM101.21 26.0204C100.521 20.8787 99.8624 15.9983 99.5169 12.5751H99.3466C99.2168 15.0696 98.3111 21.5523 97.7105 26.0204H101.21Z" fill="white"/>
<path d="M103.268 51.7726V45.2256H107.04V45.9242H104.096V47.9801H106.581V48.6887H104.096V51.064H107.14V51.7726H103.268Z" fill="white"/>
<path d="M99.1524 51.8925C98.6068 51.8925 98.1145 51.7595 97.6753 51.4933C97.2429 51.2205 96.9035 50.8313 96.6574 50.3256C96.4112 49.82 96.2881 49.2112 96.2881 48.4992C96.2881 47.9736 96.3579 47.5012 96.4977 47.082C96.644 46.6629 96.8503 46.3069 97.1164 46.0142C97.3826 45.7148 97.6886 45.4885 98.0346 45.3355C98.3873 45.1825 98.7732 45.106 99.1923 45.106C99.5849 45.106 99.9342 45.1858 100.24 45.3455C100.553 45.5052 100.802 45.6948 100.989 45.9144L100.54 46.4233C100.367 46.2371 100.167 46.094 99.9409 45.9942C99.7213 45.8877 99.4751 45.8345 99.2023 45.8345C98.7965 45.8345 98.4372 45.9443 98.1245 46.1639C97.8184 46.3768 97.5789 46.6828 97.4059 47.082C97.2329 47.4746 97.1464 47.9403 97.1464 48.4793C97.1464 49.0315 97.2296 49.5072 97.3959 49.9065C97.5622 50.3057 97.8018 50.6151 98.1145 50.8346C98.4272 51.0475 98.7931 51.154 99.2123 51.154C99.5184 51.154 99.7912 51.0974 100.031 50.9843C100.277 50.8646 100.5 50.6916 100.699 50.4653L101.138 50.9544C100.879 51.2538 100.59 51.4867 100.27 51.653C99.9508 51.8127 99.5782 51.8925 99.1524 51.8925Z" fill="white"/>
<path d="M89.3086 51.7726V45.2256H90.2168L92.5422 49.2975C92.6686 49.5171 92.7884 49.7466 92.9015 49.9862C93.0146 50.219 93.1277 50.4586 93.2408 50.7047H93.2807C93.2608 50.3654 93.2375 50.0194 93.2109 49.6668C93.1843 49.3075 93.171 48.9615 93.171 48.6289V45.2256H93.9694V51.7726H93.0612L90.7358 47.7007C90.616 47.4811 90.4929 47.2516 90.3665 47.0121C90.2467 46.7725 90.1336 46.533 90.0272 46.2935H89.9872C90.0139 46.6195 90.0371 46.9555 90.0571 47.3015C90.0837 47.6475 90.097 47.9968 90.097 48.3494V51.7726H89.3086Z" fill="white"/>
<path d="M82.1221 51.7726L84.3377 45.2256H85.2758L87.4914 51.7726H86.6132L85.4655 48.1099C85.3457 47.7439 85.2326 47.3813 85.1261 47.022C85.0197 46.6561 84.9132 46.2835 84.8068 45.9042H84.7668C84.667 46.2835 84.5639 46.6561 84.4574 47.022C84.351 47.3813 84.2379 47.7439 84.1181 48.1099L82.9604 51.7726H82.1221ZM83.2798 49.7766V49.1179H86.3038V49.7766H83.2798Z" fill="white"/>
<path d="M79.4707 51.7726V45.2256H80.2991V51.7726H79.4707Z" fill="white"/>
<path d="M73.7188 51.7726V45.2256H74.5471V51.064H77.4114V51.7726H73.7188Z" fill="white"/>
<path d="M67.167 51.7726V45.2256H69.0333C69.5257 45.2256 69.9548 45.2888 70.3208 45.4152C70.6867 45.535 70.9728 45.7346 71.1791 46.014C71.3853 46.2935 71.4884 46.6727 71.4884 47.1518C71.4884 47.6109 71.3853 47.9901 71.1791 48.2895C70.9794 48.5823 70.6967 48.8052 70.3307 48.9582C69.9714 49.1046 69.5523 49.1778 69.0732 49.1778H67.9954V51.7726H67.167ZM67.9954 48.4991H68.9734C69.5456 48.4991 69.9681 48.3893 70.2409 48.1698C70.5204 47.9502 70.6601 47.6109 70.6601 47.1518C70.6601 46.6794 70.5137 46.3534 70.2209 46.1737C69.9348 45.9874 69.5057 45.8943 68.9335 45.8943H67.9954V48.4991Z" fill="white"/>
<path d="M59.0186 51.7726V45.2256H60.0665L61.304 48.7287C61.3839 48.9482 61.4571 49.1678 61.5236 49.3873C61.5968 49.6069 61.67 49.8398 61.7432 50.086H61.7831C61.8563 49.8398 61.9261 49.6069 61.9927 49.3873C62.0592 49.1678 62.1291 48.9482 62.2023 48.7287L63.4398 45.2256H64.4778V51.7726H63.6993V48.1698C63.6993 47.9768 63.7059 47.7606 63.7193 47.521C63.7326 47.2815 63.7459 47.0453 63.7592 46.8124C63.7791 46.5729 63.7991 46.3567 63.8191 46.1637H63.7791L63.2701 47.7406L62.0426 51.1239H61.4338L60.2062 47.7406L59.6972 46.1637H59.6573C59.6773 46.3567 59.6939 46.5729 59.7072 46.8124C59.7272 47.0453 59.7438 47.2815 59.7571 47.521C59.7704 47.7606 59.7771 47.9768 59.7771 48.1698V51.7726H59.0186Z" fill="white"/>
<path d="M53.9078 51.8925C53.3622 51.8925 52.8765 51.7528 52.4506 51.4734C52.0315 51.1939 51.7021 50.798 51.4626 50.2857C51.2297 49.7734 51.1133 49.1679 51.1133 48.4693C51.1133 47.7707 51.2297 47.1719 51.4626 46.6729C51.7021 46.1672 52.0315 45.7813 52.4506 45.5151C52.8765 45.2424 53.3622 45.106 53.9078 45.106C54.46 45.106 54.9457 45.2424 55.3649 45.5151C55.784 45.7813 56.1134 46.1672 56.3529 46.6729C56.5924 47.1719 56.7122 47.7707 56.7122 48.4693C56.7122 49.1679 56.5924 49.7734 56.3529 50.2857C56.1134 50.798 55.784 51.1939 55.3649 51.4734C54.9457 51.7528 54.46 51.8925 53.9078 51.8925ZM53.9078 51.154C54.3003 51.154 54.6396 51.0442 54.9257 50.8246C55.2185 50.6051 55.4447 50.2957 55.6044 49.8965C55.7641 49.4906 55.8439 49.0149 55.8439 48.4693C55.8439 47.9304 55.7641 47.4646 55.6044 47.0721C55.4447 46.6795 55.2185 46.3768 54.9257 46.1639C54.6396 45.9443 54.3003 45.8345 53.9078 45.8345C53.5218 45.8345 53.1825 45.9443 52.8898 46.1639C52.597 46.3768 52.3708 46.6795 52.2111 47.0721C52.0514 47.4646 51.9716 47.9304 51.9716 48.4693C51.9716 49.0149 52.0514 49.4906 52.2111 49.8965C52.3708 50.2957 52.597 50.6051 52.8898 50.8246C53.1825 51.0442 53.5218 51.154 53.9078 51.154Z" fill="white"/>
<path d="M47.67 51.8925C47.1244 51.8925 46.632 51.7595 46.1929 51.4933C45.7604 51.2205 45.4211 50.8313 45.1749 50.3256C44.9288 49.82 44.8057 49.2112 44.8057 48.4992C44.8057 47.9736 44.8755 47.5012 45.0152 47.082C45.1616 46.6629 45.3679 46.3069 45.634 46.0142C45.9002 45.7148 46.2062 45.4885 46.5522 45.3355C46.9048 45.1825 47.2907 45.106 47.7099 45.106C48.1025 45.106 48.4518 45.1858 48.7578 45.3455C49.0706 45.5052 49.3201 45.6948 49.5064 45.9144L49.0572 46.4233C48.8843 46.2371 48.6847 46.094 48.4584 45.9942C48.2389 45.8877 47.9927 45.8345 47.7199 45.8345C47.314 45.8345 46.9547 45.9443 46.642 46.1639C46.336 46.3768 46.0964 46.6828 45.9235 47.082C45.7505 47.4746 45.664 47.9403 45.664 48.4793C45.664 49.0315 45.7471 49.5072 45.9135 49.9065C46.0798 50.3057 46.3193 50.6151 46.632 50.8346C46.9448 51.0475 47.3107 51.154 47.7299 51.154C48.0359 51.154 48.3087 51.0974 48.5483 50.9843C48.7944 50.8646 49.0173 50.6916 49.2169 50.4653L49.6561 50.9544C49.3966 51.2538 49.1072 51.4867 48.7878 51.653C48.4684 51.8127 48.0958 51.8925 47.67 51.8925Z" fill="white"/>
<defs>
<linearGradient id="paint0_linear_5837_191813" x1="72.4571" y1="-0.935648" x2="72.4571" y2="62.0098" gradientUnits="userSpaceOnUse">
<stop stop-color="#004AA2"/>
<stop offset="1" stop-color="#003979"/>
</linearGradient>
<linearGradient id="paint1_linear_5837_191813" x1="19.197" y1="7.26228" x2="18.3599" y2="54.6541" gradientUnits="userSpaceOnUse">
<stop stop-color="#00BEFF"/>
<stop offset="1" stop-color="#007DFF"/>
</linearGradient>
</defs>
</svg>
