<svg width="123" height="123" viewBox="0 0 123 123" fill="none" xmlns="http://www.w3.org/2000/svg">
<circle cx="61.5" cy="61.5" r="61.5" fill="#29327A"/>
<path d="M35.1445 61.5396V61.5003C35.1445 57.7416 38.0932 54.667 42.1279 54.667C44.5217 54.667 45.9723 55.3118 47.3594 56.4756L45.5125 58.6852C44.4821 57.836 43.5705 57.3484 42.0327 57.3484C39.9005 57.3484 38.2042 59.2199 38.2042 61.461V61.5003C38.2042 63.9144 39.8767 65.6915 42.2388 65.6915C43.301 65.6915 44.2522 65.4242 44.9973 64.8973V63.0101H42.0486V60.5017H47.835V66.242C46.4637 67.39 44.5772 68.3336 42.1437 68.3336C37.9981 68.3415 35.1445 65.4478 35.1445 61.5396Z" fill="white"/>
<path d="M50.7637 54.667H55.7247C59.7177 54.667 62.478 57.6182 62.478 61.4637V61.5044C62.478 65.3499 59.7177 68.3337 55.7247 68.3337H50.7637V54.667ZM53.5618 57.3824V65.6182H55.7247C58.0085 65.6182 59.5588 63.9597 59.5588 61.5369V61.4963C59.5588 59.0735 58.0161 57.3743 55.7247 57.3743H53.5618V57.3824Z" fill="white"/>
<path d="M65.4062 54.667H70.4449C73.3859 54.667 75.1682 56.6019 75.1682 59.3906V59.4312C75.1682 62.5938 72.9459 64.2361 70.1809 64.2361H68.1199V68.3337H65.4062V54.667ZM70.2689 61.5613C71.6257 61.5613 72.4178 60.667 72.4178 59.4963V59.4556C72.4178 58.106 71.5744 57.3906 70.2175 57.3906H68.1199V61.5694H70.2689V61.5613Z" fill="white"/>
<path d="M77.1221 54.667H83.3138C85.0391 54.667 86.3693 55.1548 87.2642 56.0491C88.0221 56.8133 88.4252 57.8865 88.4252 59.1711V59.2117C88.4252 61.415 87.2481 62.8052 85.5228 63.4475L88.8364 68.3255H85.3535L82.4511 63.9515H80.1051V68.3337H77.1221V54.667ZM83.1203 61.3093C84.5715 61.3093 85.4019 60.5288 85.4019 59.3743V59.3337C85.4019 58.0491 84.5151 57.3824 83.0558 57.3824H80.097V61.3093H83.1203Z" fill="white"/>
<path d="M57.8905 18.7884C58.089 18.9869 58.1708 19.2788 58.1357 19.5473L57.6687 22.443C57.6103 22.7816 57.7504 23.1202 58.0306 23.3071C58.3109 23.5055 58.6728 23.5172 58.9647 23.3538L61.3233 22.046C61.5919 21.8942 61.9188 21.8942 62.1873 22.046L64.5459 23.3538C64.8378 23.5172 65.2115 23.4939 65.48 23.3071C65.7486 23.1202 65.9004 22.7699 65.842 22.443L65.3749 19.5473C65.3282 19.2671 65.4216 18.9869 65.6201 18.7884L67.6401 16.71C67.8736 16.4765 67.9554 16.1262 67.8503 15.811C67.7452 15.4957 67.4766 15.2622 67.1497 15.2155L64.4175 14.7952C64.1256 14.7484 63.8687 14.5616 63.7519 14.2931L62.561 11.7594C62.4092 11.4441 62.1056 11.2456 61.7553 11.2456C61.405 11.2456 61.1015 11.4441 60.9497 11.7594L59.7587 14.2931C59.6303 14.5616 59.3851 14.7484 59.0932 14.7952L56.3609 15.2155C56.034 15.2622 55.7655 15.4957 55.6604 15.811C55.5553 16.1262 55.637 16.4765 55.8705 16.71L57.8905 18.7884Z" fill="#EDC940"/>
<path d="M67.138 103.965L64.4058 103.545C64.1139 103.498 63.857 103.311 63.7402 103.043L62.5493 100.509C62.3975 100.194 62.0939 99.9951 61.7436 99.9951C61.3933 99.9951 61.0897 100.194 60.9379 100.509L59.747 103.043C59.6185 103.311 59.3733 103.498 59.0814 103.545L56.3492 103.965C56.0223 104.012 55.7537 104.245 55.6487 104.56C55.5436 104.876 55.6253 105.226 55.8588 105.46L57.8905 107.538C58.089 107.736 58.1707 108.028 58.1357 108.297L57.6686 111.193C57.6103 111.531 57.7504 111.87 58.0306 112.057C58.3108 112.243 58.6728 112.267 58.9647 112.103L61.3233 110.796C61.5918 110.644 61.9187 110.644 62.1873 110.796L64.5459 112.103C64.8378 112.267 65.2114 112.243 65.48 112.057C65.7602 111.858 65.9003 111.519 65.8419 111.193L65.3749 108.297C65.3282 108.017 65.4216 107.736 65.6201 107.538L67.6517 105.46C67.8853 105.226 67.967 104.876 67.8619 104.56C67.7568 104.245 67.4649 104.012 67.138 103.965Z" fill="#EDC940"/>
<path d="M36.2646 24.7899C36.4631 24.9884 36.5565 25.2803 36.5098 25.5488L36.0428 28.4445C35.9844 28.7831 36.1245 29.1217 36.4047 29.3086C36.685 29.5071 37.0469 29.5187 37.3505 29.3553L39.7091 28.0475C39.9776 27.8957 40.3046 27.8957 40.5731 28.0475L42.9317 29.3553C43.2236 29.5187 43.5972 29.4954 43.8658 29.3086C44.146 29.1101 44.2861 28.7715 44.2278 28.4445L43.7607 25.5488C43.714 25.2686 43.8074 24.9884 44.0059 24.7899L46.0376 22.7115C46.2711 22.478 46.3528 22.1277 46.2477 21.8125C46.1426 21.4972 45.8741 21.2637 45.5472 21.217L42.8149 20.7967C42.523 20.75 42.2662 20.5631 42.1494 20.2946L40.9584 17.7609C40.8066 17.4573 40.5031 17.2588 40.1645 17.2588C39.8259 17.2588 39.5106 17.4573 39.3705 17.7609L38.1678 20.2946C38.0394 20.5631 37.7942 20.75 37.5023 20.7967L34.7701 21.217C34.4432 21.2637 34.1629 21.4972 34.0578 21.8125C33.9528 22.1277 34.0345 22.478 34.268 22.7115L36.2646 24.7899Z" fill="#EDC940"/>
<path d="M89.8928 98.0685L87.1606 97.6482C86.8687 97.6015 86.6118 97.4147 86.4951 97.1461L85.3041 94.6124C85.1523 94.2971 84.8487 94.0986 84.4984 94.0986C84.1598 94.0986 83.8446 94.2971 83.6928 94.6124L82.5018 97.1461C82.3734 97.4147 82.1282 97.6015 81.8363 97.6482L79.1041 98.0685C78.7771 98.1152 78.4969 98.3488 78.3918 98.664C78.2867 98.9793 78.3685 99.3295 78.602 99.5631L80.6336 101.641C80.8321 101.84 80.9255 102.132 80.8788 102.4L80.4118 105.296C80.3534 105.635 80.4935 105.973 80.7738 106.16C81.054 106.359 81.4159 106.37 81.7195 106.207L84.0781 104.899C84.3467 104.747 84.6736 104.747 84.9421 104.899L87.3007 106.207C87.5926 106.37 87.9663 106.347 88.2348 106.16C88.515 105.962 88.6551 105.623 88.5968 105.296L88.1297 102.4C88.083 102.12 88.1764 101.84 88.3749 101.641L90.4066 99.5631C90.6401 99.3295 90.7218 98.9793 90.6167 98.664C90.5117 98.3488 90.2314 98.1269 89.8928 98.0685Z" fill="#EDC940"/>
<path d="M20.1659 40.1209C20.3644 40.3194 20.4461 40.6113 20.4111 40.8799L19.9441 43.7755C19.8857 44.1141 20.0258 44.4528 20.306 44.6396C20.5863 44.8264 20.9482 44.8497 21.2401 44.6863L23.5987 43.3785C23.8672 43.2268 24.1942 43.2268 24.4627 43.3785L26.8213 44.6863C27.1132 44.8497 27.4868 44.8264 27.7554 44.6396C28.0356 44.4411 28.1757 44.1025 28.1174 43.7755L27.6503 40.8799C27.6036 40.5996 27.697 40.3194 27.8955 40.1209L29.9272 38.0426C30.1607 37.809 30.2424 37.4587 30.1373 37.1435C30.0322 36.8282 29.7637 36.5947 29.4251 36.548L26.6929 36.1277C26.401 36.081 26.1441 35.8941 26.0273 35.6256L24.8364 33.0919C24.6846 32.7766 24.381 32.5781 24.0307 32.5781C23.6804 32.5781 23.3768 32.7766 23.2251 33.0919L22.0341 35.6256C21.9057 35.8941 21.6605 36.081 21.3686 36.1277L18.6363 36.548C18.3094 36.5947 18.0409 36.8282 17.9358 37.1435C17.8307 37.4587 17.9124 37.809 18.1459 38.0426L20.1659 40.1209Z" fill="#EDC940"/>
<path d="M106.276 80.9172L103.543 80.4968C103.252 80.4501 102.995 80.2633 102.878 79.9947L101.687 77.461C101.535 77.1458 101.232 76.9473 100.881 76.9473C100.531 76.9473 100.227 77.1458 100.076 77.461L98.8847 79.9947C98.7562 80.2633 98.511 80.4501 98.2191 80.4968L95.4869 80.9172C95.16 80.9639 94.8914 81.1974 94.7864 81.5126C94.6813 81.8279 94.763 82.1782 94.9965 82.4117L97.0282 84.4901C97.2267 84.6886 97.3201 84.9804 97.2734 85.249L96.8063 88.1447C96.7479 88.4833 96.8881 88.8219 97.1683 89.0087C97.4485 89.2072 97.8105 89.2189 98.1024 89.0554L100.461 87.7477C100.73 87.5959 101.056 87.5959 101.325 87.7477L103.684 89.0554C103.975 89.2189 104.349 89.1955 104.629 89.0087C104.91 88.8102 105.05 88.4716 104.991 88.1447L104.524 85.249C104.478 84.9688 104.571 84.6886 104.769 84.4901L106.801 82.4117C107.035 82.1782 107.116 81.8279 107.011 81.5126C106.871 81.1974 106.603 80.9639 106.276 80.9172Z" fill="#EDC940"/>
<path d="M21.0982 67.6879C21.3784 67.4894 21.5186 67.1508 21.4602 66.8238L20.9931 63.9282C20.9464 63.6479 21.0398 63.3677 21.2383 63.1692L23.27 61.0792C23.5035 60.8457 23.5852 60.4954 23.4801 60.1801C23.3751 59.8649 23.1065 59.6313 22.7796 59.5846L20.0474 59.1643C19.7555 59.1176 19.4986 58.9308 19.3818 58.6622L18.1909 56.1285C18.0391 55.8132 17.7355 55.6147 17.3852 55.6147C17.0349 55.6147 16.7313 55.8132 16.5795 56.1285L15.3886 58.6622C15.2601 58.9308 15.0149 59.1176 14.723 59.1643L11.9908 59.5846C11.6639 59.6313 11.3953 59.8649 11.2903 60.1801C11.1852 60.4954 11.2669 60.8457 11.5004 61.0792L13.5321 63.1575C13.7306 63.356 13.8123 63.6479 13.7773 63.9165L13.3102 66.8122C13.2519 67.1508 13.392 67.4894 13.6722 67.6762C13.9524 67.863 14.3144 67.8864 14.6063 67.7229L16.9649 66.4152C17.2334 66.2634 17.5603 66.2634 17.8289 66.4152L20.1875 67.7229C20.456 67.9097 20.8297 67.8864 21.0982 67.6879Z" fill="#EDC940"/>
<path d="M112.008 61.0792C112.242 60.8457 112.324 60.4954 112.218 60.1801C112.113 59.8649 111.845 59.6313 111.518 59.5846L108.786 59.1643C108.494 59.1176 108.237 58.9308 108.12 58.6622L106.929 56.1285C106.777 55.8132 106.474 55.6147 106.123 55.6147C105.773 55.6147 105.47 55.8132 105.318 56.1285L104.127 58.6622C103.998 58.9308 103.753 59.1176 103.461 59.1643L100.729 59.5846C100.402 59.6313 100.134 59.8649 100.029 60.1801C99.9235 60.4954 100.005 60.8457 100.239 61.0792L102.27 63.1575C102.469 63.356 102.551 63.6479 102.516 63.9165L102.049 66.8122C101.99 67.1508 102.13 67.4894 102.41 67.6762C102.691 67.863 103.053 67.8864 103.345 67.7229L105.703 66.4152C105.972 66.2634 106.299 66.2634 106.567 66.4152L108.926 67.7229C109.218 67.8864 109.591 67.863 109.86 67.6762C110.14 67.4777 110.28 67.1391 110.222 66.8122L109.755 63.9165C109.708 63.6363 109.801 63.356 110 63.1575L112.008 61.0792Z" fill="#EDC940"/>
<path d="M30.1926 80.5548L27.4604 80.1345C27.1685 80.0878 26.9116 79.901 26.7949 79.6324L25.6039 77.0987C25.4521 76.7835 25.1485 76.585 24.7982 76.585C24.4596 76.585 24.1444 76.7835 23.9926 77.0987L22.8016 79.6208C22.6732 79.8893 22.428 80.0761 22.1361 80.1228L19.4039 80.5432C19.0769 80.5899 18.7967 80.8234 18.6916 81.1387C18.5865 81.4539 18.6683 81.8042 18.9018 82.0377L20.9334 84.1161C21.1319 84.3146 21.2137 84.6065 21.1786 84.875L20.7116 87.7707C20.6532 88.1093 20.7933 88.4479 21.0736 88.6347C21.3538 88.8332 21.7157 88.8449 22.0193 88.6814L24.3779 87.3737C24.6465 87.2219 24.9734 87.2219 25.2419 87.362L27.6005 88.6698C27.8924 88.8332 28.2661 88.8099 28.5346 88.6231C28.8148 88.4246 28.955 88.086 28.8966 87.759L28.4295 84.8633C28.3828 84.5831 28.4762 84.3029 28.6747 84.1044L30.7064 82.026C30.9399 81.7925 31.0216 81.4422 30.9165 81.127C30.7998 80.8351 30.5312 80.6016 30.1926 80.5548Z" fill="#EDC940"/>
<path d="M97.7988 39.7591C97.9973 39.9575 98.079 40.2494 98.044 40.518L97.5769 43.4137C97.5185 43.7523 97.6586 44.0909 97.9389 44.2777C98.2191 44.4645 98.5811 44.4879 98.873 44.3244L101.232 43.0167C101.5 42.8649 101.827 42.8649 102.096 43.0167L104.454 44.3244C104.758 44.4879 105.12 44.4762 105.4 44.2777C105.68 44.0792 105.82 43.7406 105.762 43.402L105.295 40.5063C105.248 40.2261 105.342 39.9459 105.54 39.7474L107.572 37.669C107.805 37.4355 107.887 37.0852 107.782 36.77C107.677 36.4547 107.408 36.2212 107.07 36.1745L104.337 35.7541C104.045 35.7074 103.789 35.5206 103.672 35.2521L102.481 32.7183C102.329 32.4031 102.026 32.2046 101.675 32.2046C101.325 32.2046 101.021 32.4031 100.87 32.7183L99.6786 35.2521C99.5502 35.5206 99.305 35.7074 99.0131 35.7541L96.2809 36.1745C95.9539 36.2212 95.6854 36.4547 95.5803 36.77C95.4752 37.0852 95.5569 37.4355 95.7905 37.669L97.7988 39.7591Z" fill="#EDC940"/>
<path d="M44.7415 95.8742L42.0093 95.4538C41.7174 95.4071 41.4605 95.2203 41.3437 94.9518L40.1528 92.418C40.001 92.1028 39.6974 91.9043 39.3471 91.9043C38.9968 91.9043 38.6933 92.1028 38.5415 92.418L37.3505 94.9518C37.2221 95.2203 36.9769 95.4071 36.685 95.4538L33.9527 95.8742C33.6258 95.9209 33.3573 96.1544 33.2522 96.4697C33.1471 96.7849 33.2288 97.1352 33.4623 97.3687L35.494 99.4471C35.6925 99.6456 35.7742 99.9375 35.7392 100.206L35.2605 103.113C35.2021 103.452 35.3422 103.791 35.6224 103.977C35.9027 104.176 36.2646 104.188 36.5565 104.024L38.9151 102.716C39.1837 102.565 39.5106 102.565 39.7791 102.716L42.1377 104.024C42.4296 104.188 42.8033 104.164 43.0718 103.977C43.352 103.779 43.4921 103.44 43.4338 103.113L42.9667 100.218C42.92 99.9375 43.0134 99.6573 43.2119 99.4588L45.2436 97.3804C45.4771 97.1469 45.5588 96.7966 45.4537 96.4813C45.3487 96.1544 45.0684 95.9326 44.7415 95.8742Z" fill="#EDC940"/>
<path d="M80.0987 23.3647L79.6316 26.2604C79.5732 26.599 79.7133 26.9376 79.9936 27.1244C80.2738 27.3229 80.6358 27.3346 80.9277 27.1711L83.2862 25.8634C83.5548 25.7116 83.8817 25.7116 84.1503 25.8634L86.5088 27.1711C86.8008 27.3346 87.1744 27.3113 87.4429 27.1244C87.7232 26.9259 87.8633 26.5873 87.8049 26.2604L87.3379 23.3647C87.2912 23.0845 87.3846 22.8043 87.5831 22.6058L89.6147 20.5274C89.8482 20.2939 89.93 19.9436 89.8249 19.6284C89.7198 19.3131 89.4512 19.0796 89.1243 19.0329L86.3921 18.6125C86.1002 18.5658 85.8433 18.379 85.7266 18.1105L84.5356 15.5767C84.3838 15.2615 84.0802 15.063 83.7299 15.063C83.3796 15.063 83.0761 15.2615 82.9243 15.5767L81.7333 18.1105C81.6049 18.379 81.3597 18.5658 81.0678 18.6125L78.3356 19.0329C78.0086 19.0796 77.7401 19.3131 77.635 19.6284C77.5299 19.9436 77.6116 20.2939 77.8452 20.5274L79.8768 22.6058C80.0636 22.8043 80.1454 23.0845 80.0987 23.3647Z" fill="#EDC940"/>
</svg>
